<svg width="64" height="64" viewBox="0 0 64 64" fill="none" xmlns="http://www.w3.org/2000/svg">
<rect width="64" height="64" rx="32" fill="white"/>
<path d="M14.0933 33.4142C16.4205 34.5778 17.3031 33.1847 17.5382 31.9108C17.4646 34.8373 19.447 38.4965 20.3697 39.1885C21.3739 39.9417 21.8761 45.465 23.3824 47.4735C24.8888 49.482 28.4036 51.7415 33.1737 51.7415C37.9438 51.7415 38.9481 49.482 40.2033 47.4735C41.4301 45.5107 41.9608 40.4438 43.7182 38.4354C45.1241 36.8286 45.8103 33.9163 45.9777 32.661C45.894 32.3263 46.1283 32.0083 47.7351 33.4142C49.7436 35.1716 50.9989 31.1547 53.5095 28.142C56.0201 25.1293 54.7648 21.1123 54.0116 20.3591C53.2584 19.606 45.2245 15.0869 41.2076 13.5806C37.1907 12.0742 36.4375 14.5848 35.6843 14.5848H28.1525C27.5667 13.9153 25.9934 12.6767 24.3867 13.0784C22.3782 13.5806 11.5827 18.3507 9.32314 21.1123C7.06361 23.874 10.5784 31.6568 14.0933 33.4142Z" fill="#FFE8AB"/>
<path d="M41.2076 13.5803C37.1907 12.074 36.4375 14.5846 35.6843 14.5846C45.37 16.9566 46.6095 27.3046 46.0081 32.4181C45.9558 32.4712 45.9538 32.5653 45.9777 32.6608C45.9883 32.5813 45.9985 32.5004 46.0081 32.4181C46.1392 32.2848 46.5865 32.4089 47.7351 33.414C49.7436 35.1714 50.9989 31.1544 53.5095 28.1417C56.0201 25.129 54.7648 21.1121 54.0116 20.3589C53.2584 19.6057 45.2245 15.0867 41.2076 13.5803Z" fill="#F2CF73"/>
<path d="M44.4398 21.8655C42.9352 18.5893 40.2469 15.7021 35.6844 14.5848C38.9271 13.9153 45.2179 14.4342 44.4398 21.8655Z" fill="#D5B256"/>
<path d="M14.0931 33.4143C16.4203 34.5779 17.303 33.1848 17.5381 31.9109C17.4645 34.8374 19.4469 38.4966 20.3696 39.1887C23.8007 39.5234 30.6128 38.3853 30.4119 31.1548C30.1609 22.1167 25.1397 20.3593 29.9099 14.5849H28.1524C27.5666 13.9154 25.9933 12.6769 24.3865 13.0786C22.378 13.5807 11.5825 18.3508 9.32298 21.1124C7.06345 23.8741 10.5783 31.6569 14.0931 33.4143Z" fill="#F2CF73"/>
<path d="M26.395 14.8359C19.5662 12.4258 17.6917 24.8783 17.608 31.4058C16.8972 38.6865 20.3696 26.1336 21.3738 20.6103C22.3781 15.087 26.395 15.5891 26.395 14.8359Z" fill="#D5B256"/>
<path d="M27.6504 43.4567C27.4496 45.2643 30.4121 46.7204 31.9184 46.7204C33.4247 46.7204 36.4375 45.9673 36.1864 43.4567C35.9353 40.9461 33.6758 41.1971 31.9184 40.9461C30.161 40.695 27.9015 41.1971 27.6504 43.4567Z" fill="#534319"/>
<circle r="3.0127" transform="matrix(-1 0 0 1 23.6335 31.1547)" fill="#534319"/>
<circle r="3.0127" transform="matrix(-1 0 0 1 39.7012 31.1547)" fill="#534319"/>
<circle r="1.25529" transform="matrix(-1 0 0 1 23.3824 30.4017)" fill="white"/>
<circle r="1.25529" transform="matrix(-1 0 0 1 39.4503 30.4017)" fill="white"/>
</svg>
